<svg xmlns="http://www.w3.org/2000/svg" viewBox="0 0 262 262"><defs><style>.a,.c{fill:#333;}.a,.b,.c{stroke:#333;stroke-miterlimit:10;}.b{fill:none;}.b,.c{stroke-linecap:round;stroke-width:6px;}</style></defs><ellipse class="a" cx="180.33" cy="93" rx="15.33" ry="16"/><polygon class="b" points="259 45.67 259 184.33 205.67 131 152.33 184.33 131 163 170.11 45.67 259 45.67"/><polygon class="b" points="148.77 45.67 115 147 77.67 109.67 3 184.33 3 45.67 148.77 45.67"/><polygon class="c" points="115 147 91.89 216.33 3 216.33 3 184.33 77.67 109.67 115 147"/><polygon class="c" points="259 184.33 259 216.33 113.23 216.33 131 163 152.33 184.33 205.67 131 259 184.33"/><line class="b" x1="88.33" y1="259" x2="173.67" y2="3"/></svg>